# xmcd CD database file
#
# Track frame offsets:
#	150
#	66885
#	133225
#
# Disc length: 2538 seconds
#
# Revision: 0
# Processed by: cddbd v1.4PL0 Copyright (c) Steve Scherf et al.
# Submitted via: CDex 1.50beta9
#
DISCID=2909e803
DTITLE=Fela Anikulapo Kuti and The Africa 70 - Up Side Down
DYEAR=1997
DGENRE=Jazz
TTITLE0=Up Side Down
TTITLE1=Go Slow
TTITLE2=Question Answer Jam
EXTD=YEAR: 1997
EXTT0=
EXTT1=
EXTT2=
PLAYORDER=
